<?xml version="1.0" encoding="UTF-8" standalone="no"?>
<!DOCTYPE svg PUBLIC "-//W3C//DTD SVG 1.1//EN"
 "http://www.w3.org/Graphics/SVG/1.1/DTD/svg11.dtd">
<!-- Generated by graphviz version 2.40.1 (20161225.0304)
 -->
<!-- Title: finite_state_machine Pages: 1 -->
<svg width="340pt" height="316pt"
 viewBox="0.00 0.00 339.80 315.89" xmlns="http://www.w3.org/2000/svg" xmlns:xlink="http://www.w3.org/1999/xlink">
<g id="graph0" class="graph" transform="scale(1 1) rotate(0) translate(4 311.886)">
<title>finite_state_machine</title>
<!-- menu -->
<g id="node1" class="node">
<title>menu</title>
<ellipse fill="none" stroke="#000000" cx="139.7982" cy="-232.7388" rx="30.5892" ry="30.5892"/>
<ellipse fill="none" stroke="#000000" cx="139.7982" cy="-232.7388" rx="34.5946" ry="34.5946"/>
<text text-anchor="middle" x="139.7982" y="-229.0388" font-family="Times,serif" font-size="14.00" fill="#000000">menu</text>
</g>
<!-- run -->
<g id="node3" class="node">
<title>run</title>
<ellipse fill="none" stroke="#000000" cx="139.7982" cy="-124.4435" rx="22.9987" ry="22.9987"/>
<text text-anchor="middle" x="139.7982" y="-120.7435" font-family="Times,serif" font-size="14.00" fill="#000000">run</text>
</g>
<!-- menu&#45;&gt;run -->
<g id="edge2" class="edge">
<title>menu&#45;&gt;run</title>
<path fill="none" stroke="#000000" d="M139.7982,-198.1757C139.7982,-185.2152 139.7982,-170.5246 139.7982,-157.6862"/>
<polygon fill="#000000" stroke="#000000" points="143.2983,-157.4163 139.7982,-147.4163 136.2983,-157.4164 143.2983,-157.4163"/>
<text text-anchor="middle" x="172.2982" y="-168.9915" font-family="Times,serif" font-size="14.00" fill="#000000">newGame()</text>
</g>
<!-- qi -->
<g id="node2" class="node">
<title>qi</title>
<ellipse fill="#000000" stroke="#000000" cx="139.7982" cy="-306.086" rx="1.8" ry="1.8"/>
</g>
<!-- qi&#45;&gt;menu -->
<g id="edge1" class="edge">
<title>qi&#45;&gt;menu</title>
<path fill="none" stroke="#000000" d="M139.7982,-304.273C139.7982,-300.1366 139.7982,-289.4364 139.7982,-277.5345"/>
<polygon fill="#000000" stroke="#000000" points="143.2983,-277.3719 139.7982,-267.3719 136.2983,-277.372 143.2983,-277.3719"/>
</g>
<!-- set -->
<g id="node4" class="node">
<title>set</title>
<ellipse fill="none" stroke="#000000" cx="20.7982" cy="-25.3478" rx="20.5982" ry="20.5982"/>
<text text-anchor="middle" x="20.7982" y="-21.6478" font-family="Times,serif" font-size="14.00" fill="#000000">set</text>
</g>
<!-- run&#45;&gt;set -->
<g id="edge3" class="edge">
<title>run&#45;&gt;set</title>
<path fill="none" stroke="#000000" d="M117.2148,-120.0857C85.5298,-113.4605 30.4379,-99.8973 18.7982,-83.6955 12.9606,-75.5699 11.9222,-65.0355 12.8499,-55.158"/>
<polygon fill="#000000" stroke="#000000" points="16.3149,-55.653 14.4096,-45.2309 9.3998,-54.5665 16.3149,-55.653"/>
<text text-anchor="middle" x="38.2982" y="-72.4955" font-family="Times,serif" font-size="14.00" fill="#000000">death()</text>
</g>
<!-- stop -->
<g id="node5" class="node">
<title>stop</title>
<ellipse fill="none" stroke="#000000" cx="262.7982" cy="-25.3478" rx="25.1964" ry="25.1964"/>
<text text-anchor="middle" x="262.7982" y="-21.6478" font-family="Times,serif" font-size="14.00" fill="#000000">stop</text>
</g>
<!-- run&#45;&gt;stop -->
<g id="edge4" class="edge">
<title>run&#45;&gt;stop</title>
<path fill="none" stroke="#000000" d="M152.2054,-105.0116C160.235,-93.4821 171.4677,-79.1286 183.7982,-68.6955 197.5137,-57.0904 214.8222,-47.1739 229.7396,-39.7664"/>
<polygon fill="#000000" stroke="#000000" points="231.627,-42.7433 239.1355,-35.2685 228.6044,-36.4295 231.627,-42.7433"/>
<text text-anchor="middle" x="205.2982" y="-72.4955" font-family="Times,serif" font-size="14.00" fill="#000000">PAUSE</text>
</g>
<!-- set&#45;&gt;menu -->
<g id="edge8" class="edge">
<title>set&#45;&gt;menu</title>
<path fill="none" stroke="#000000" d="M13.057,-44.8838C10.5304,-52.227 8.053,-60.7271 6.7982,-68.6955 1.0361,-105.2847 12.3458,-117.7319 34.7982,-147.1915 53.2948,-171.4607 80.0209,-193.108 101.8799,-208.555"/>
<polygon fill="#000000" stroke="#000000" points="100.08,-211.5656 110.2969,-214.3704 104.0591,-205.8064 100.08,-211.5656"/>
<text text-anchor="middle" x="68.7982" y="-120.7435" font-family="Times,serif" font-size="14.00" fill="#000000">resetGame()</text>
</g>
<!-- set&#45;&gt;run -->
<g id="edge7" class="edge">
<title>set&#45;&gt;run</title>
<path fill="none" stroke="#000000" d="M36.9012,-38.7573C56.8224,-55.3465 90.9725,-83.7845 114.4292,-103.3178"/>
<polygon fill="#000000" stroke="#000000" points="112.3151,-106.112 122.2393,-109.8216 116.7945,-100.7328 112.3151,-106.112"/>
<text text-anchor="middle" x="116.7982" y="-72.4955" font-family="Times,serif" font-size="14.00" fill="#000000">setGame()</text>
</g>
<!-- stop&#45;&gt;menu -->
<g id="edge6" class="edge">
<title>stop&#45;&gt;menu</title>
<path fill="none" stroke="#000000" d="M280.2333,-44.1017C288.5251,-55.3366 295.673,-70.0457 290.7982,-83.6955 270.842,-139.5742 216.2126,-184.1435 178.4472,-209.5111"/>
<polygon fill="#000000" stroke="#000000" points="176.1583,-206.8267 169.7161,-215.2379 179.9975,-212.6799 176.1583,-206.8267"/>
<text text-anchor="middle" x="306.7982" y="-120.7435" font-family="Times,serif" font-size="14.00" fill="#000000">SELECT</text>
</g>
<!-- stop&#45;&gt;run -->
<g id="edge5" class="edge">
<title>stop&#45;&gt;run</title>
<path fill="none" stroke="#000000" d="M253.6167,-48.9856C248.1319,-60.6394 240.1912,-74.1941 229.7982,-83.6955 213.2731,-98.8028 190.1994,-109.0983 171.5524,-115.561"/>
<polygon fill="#000000" stroke="#000000" points="170.4127,-112.2512 161.9912,-118.6799 172.5836,-118.9061 170.4127,-112.2512"/>
<text text-anchor="middle" x="262.2982" y="-72.4955" font-family="Times,serif" font-size="14.00" fill="#000000">PAUSE</text>
</g>
</g>
</svg>
