<?xml version="1.0" encoding="UTF-8" standalone="no"?>
<!DOCTYPE svg PUBLIC "-//W3C//DTD SVG 1.1//EN"
 "http://www.w3.org/Graphics/SVG/1.1/DTD/svg11.dtd">
<!-- Generated by graphviz version 2.40.1 (20161225.0304)
 -->
<!-- Title: finite_state_machine Pages: 1 -->
<svg width="640pt" height="377pt"
 viewBox="0.00 0.00 640.07 377.14" xmlns="http://www.w3.org/2000/svg" xmlns:xlink="http://www.w3.org/1999/xlink">
<g id="graph0" class="graph" transform="scale(1 1) rotate(0) translate(4 373.1386)">
<title>finite_state_machine</title>
<!-- falling -->
<g id="node1" class="node">
<title>falling</title>
<ellipse fill="none" stroke="#000000" cx="78.397" cy="-177.1386" rx="33.6165" ry="33.6165"/>
<ellipse fill="none" stroke="#000000" cx="78.397" cy="-177.1386" rx="37.5951" ry="37.5951"/>
<text text-anchor="middle" x="78.397" y="-173.4386" font-family="Times,serif" font-size="14.00" fill="#000000">falling</text>
</g>
<!-- falling&#45;&gt;falling -->
<g id="edge3" class="edge">
<title>falling&#45;&gt;falling</title>
<path fill="none" stroke="#000000" d="M73.1931,-214.9063C72.8343,-230.6175 74.5689,-243.9356 78.397,-243.9356 81.3578,-243.9356 83.0663,-235.9686 83.5224,-225.0894"/>
<polygon fill="#000000" stroke="#000000" points="87.0236,-224.933 83.6009,-214.9063 80.0238,-224.879 87.0236,-224.933"/>
</g>
<!-- falling&#45;&gt;falling -->
<g id="edge7" class="edge">
<title>falling&#45;&gt;falling</title>
<path fill="none" stroke="#000000" d="M69.3127,-214.0054C65.7986,-243.0916 68.8267,-272.9356 78.397,-272.9356 86.8458,-272.9356 90.1959,-249.6764 88.4472,-224.213"/>
<polygon fill="#000000" stroke="#000000" points="91.9079,-223.6312 87.4813,-214.0054 84.939,-224.2907 91.9079,-223.6312"/>
<text text-anchor="middle" x="78.397" y="-276.7356" font-family="Times,serif" font-size="14.00" fill="#000000">collison_P_BOTTOM</text>
</g>
<!-- death -->
<g id="node3" class="node">
<title>death</title>
<ellipse fill="#000000" stroke="#000000" cx="286.4904" cy="-358.1386" rx="1.8" ry="1.8"/>
</g>
<!-- falling&#45;&gt;death -->
<g id="edge6" class="edge">
<title>falling:nw&#45;&gt;death</title>
<path fill="none" stroke="#000000" d="M51.397,-204.1386C40.8027,-214.7329 27.2608,-256.6099 134.194,-325.1386 179.7908,-354.3595 247.2,-358.0595 274.4291,-358.2838"/>
<polygon fill="#000000" stroke="#000000" points="274.5178,-361.7833 284.4904,-358.2061 274.4637,-354.7835 274.5178,-361.7833"/>
<text text-anchor="middle" x="181.194" y="-357.9386" font-family="Times,serif" font-size="14.00" fill="#000000">collison_P_SIDE</text>
</g>
<!-- standing -->
<g id="node4" class="node">
<title>standing</title>
<ellipse fill="none" stroke="#000000" cx="286.4904" cy="-60.1386" rx="40.0939" ry="40.0939"/>
<text text-anchor="middle" x="286.4904" y="-56.4386" font-family="Times,serif" font-size="14.00" fill="#000000">standing</text>
</g>
<!-- falling&#45;&gt;standing -->
<g id="edge2" class="edge">
<title>falling&#45;&gt;standing</title>
<path fill="none" stroke="#000000" d="M109.6138,-155.6319C117.5322,-150.401 126.0928,-144.9355 134.194,-140.1386 144.378,-134.1084 200.3396,-104.8745 241.4846,-83.4836"/>
<polygon fill="#000000" stroke="#000000" points="243.28,-86.4951 250.5396,-78.7783 240.0522,-80.2837 243.28,-86.4951"/>
<text text-anchor="middle" x="181.194" y="-143.9386" font-family="Times,serif" font-size="14.00" fill="#000000">collison_P_TOP</text>
</g>
<!-- jumping -->
<g id="node5" class="node">
<title>jumping</title>
<ellipse fill="none" stroke="#000000" cx="591.7765" cy="-111.1386" rx="40.0939" ry="40.0939"/>
<text text-anchor="middle" x="591.7765" y="-107.4386" font-family="Times,serif" font-size="14.00" fill="#000000">jumping</text>
</g>
<!-- falling&#45;&gt;jumping -->
<g id="edge4" class="edge">
<title>falling&#45;&gt;jumping</title>
<path fill="none" stroke="#000000" d="M102.8657,-206.2752C111.8358,-215.2281 122.6439,-224.2608 134.194,-230.1386 271.5495,-300.0373 341.2577,-351.2207 477.48,-279.1386 525.1094,-253.9355 556.5931,-198.994 574.2409,-158.777"/>
<polygon fill="#000000" stroke="#000000" points="577.5309,-159.9838 578.2197,-149.4114 571.0882,-157.2467 577.5309,-159.9838"/>
<text text-anchor="middle" x="363.7869" y="-316.9386" font-family="Times,serif" font-size="14.00" fill="#000000">jump()</text>
</g>
<!-- dashing -->
<g id="node6" class="node">
<title>dashing</title>
<ellipse fill="none" stroke="#000000" cx="439.1334" cy="-160.1386" rx="38.1938" ry="38.1938"/>
<text text-anchor="middle" x="439.1334" y="-156.4386" font-family="Times,serif" font-size="14.00" fill="#000000">dashing</text>
</g>
<!-- falling&#45;&gt;dashing -->
<g id="edge5" class="edge">
<title>falling&#45;&gt;dashing</title>
<path fill="none" stroke="#000000" d="M112.9197,-193.0584C119.8285,-195.5808 127.1355,-197.7973 134.194,-199.1386 242.7374,-219.7645 277.3249,-232.076 382.7869,-199.1386 389.1959,-197.1369 395.5177,-194.1224 401.4792,-190.6388"/>
<polygon fill="#000000" stroke="#000000" points="403.3678,-193.5855 409.9238,-185.2626 399.6085,-187.6806 403.3678,-193.5855"/>
<text text-anchor="middle" x="286.4904" y="-222.9386" font-family="Times,serif" font-size="14.00" fill="#000000">dash()</text>
</g>
<!-- qi -->
<g id="node2" class="node">
<title>qi</title>
<ellipse fill="#000000" stroke="#000000" cx="1.8" cy="-177.1386" rx="1.8" ry="1.8"/>
</g>
<!-- qi&#45;&gt;falling -->
<g id="edge1" class="edge">
<title>qi&#45;&gt;falling</title>
<path fill="none" stroke="#000000" d="M3.6934,-177.1386C7.833,-177.1386 18.268,-177.1386 30.0699,-177.1386"/>
<polygon fill="#000000" stroke="#000000" points="30.1967,-180.6387 40.1967,-177.1386 30.1966,-173.6387 30.1967,-180.6387"/>
</g>
<!-- standing&#45;&gt;falling -->
<g id="edge16" class="edge">
<title>standing&#45;&gt;falling</title>
<path fill="none" stroke="#000000" d="M245.9411,-58.5882C213.1627,-59.2642 167.203,-64.7664 134.194,-87.1386 117.8868,-98.191 105.4551,-115.7596 96.5118,-132.4527"/>
<polygon fill="#000000" stroke="#000000" points="93.2814,-131.0854 91.8997,-141.5897 99.5305,-134.2397 93.2814,-131.0854"/>
</g>
<!-- standing&#45;&gt;standing -->
<g id="edge15" class="edge">
<title>standing&#45;&gt;standing</title>
<path fill="none" stroke="#000000" d="M272.4631,-97.9166C271.1271,-114.8178 275.8029,-129.435 286.4904,-129.435 294.9235,-129.435 299.6136,-120.334 300.5607,-108.1913"/>
<polygon fill="#000000" stroke="#000000" points="304.0596,-107.9019 300.5178,-97.9166 297.0597,-107.9312 304.0596,-107.9019"/>
<text text-anchor="middle" x="286.4904" y="-133.235" font-family="Times,serif" font-size="14.00" fill="#000000">collision_G</text>
</g>
<!-- standing&#45;&gt;jumping -->
<g id="edge17" class="edge">
<title>standing&#45;&gt;jumping</title>
<path fill="none" stroke="#000000" d="M326.8882,-65.0931C375.951,-71.3627 461.1276,-83.0591 533.48,-97.1386 536.4989,-97.726 539.5974,-98.3644 542.7171,-99.034"/>
<polygon fill="#000000" stroke="#000000" points="542.1589,-102.4954 552.6809,-101.2555 543.6822,-95.6632 542.1589,-102.4954"/>
<text text-anchor="middle" x="439.1334" y="-90.9386" font-family="Times,serif" font-size="14.00" fill="#000000">jump()</text>
</g>
<!-- standing&#45;&gt;dashing -->
<g id="edge18" class="edge">
<title>standing&#45;&gt;dashing</title>
<path fill="none" stroke="#000000" d="M320.3669,-82.3318C343.3651,-97.3985 373.9028,-117.4044 398.2533,-133.357"/>
<polygon fill="#000000" stroke="#000000" points="396.6364,-136.4819 406.9192,-139.0343 400.4724,-130.6266 396.6364,-136.4819"/>
<text text-anchor="middle" x="363.7869" y="-125.9386" font-family="Times,serif" font-size="14.00" fill="#000000">dash()</text>
</g>
<!-- jumping&#45;&gt;falling -->
<g id="edge10" class="edge">
<title>jumping&#45;&gt;falling</title>
<path fill="none" stroke="#000000" d="M558.0009,-88.8543C496.781,-51.1661 362.995,18.8357 246.194,-5.1386 193.1434,-16.0276 172.8305,-15.1892 134.194,-53.1386 112.764,-74.1875 98.8525,-104.9467 90.2797,-130.5631"/>
<polygon fill="#000000" stroke="#000000" points="86.9427,-129.5077 87.251,-140.098 93.6142,-131.6269 86.9427,-129.5077"/>
</g>
<!-- jumping&#45;&gt;jumping -->
<g id="edge8" class="edge">
<title>jumping&#45;&gt;jumping</title>
<path fill="none" stroke="#000000" d="M577.7491,-148.9166C576.4132,-165.8178 581.089,-180.435 591.7765,-180.435 600.2096,-180.435 604.8997,-171.334 605.8467,-159.1913"/>
<polygon fill="#000000" stroke="#000000" points="609.3457,-158.9019 605.8038,-148.9166 602.3457,-158.9312 609.3457,-158.9019"/>
<text text-anchor="middle" x="591.7765" y="-184.235" font-family="Times,serif" font-size="14.00" fill="#000000">jump()</text>
</g>
<!-- jumping&#45;&gt;dashing -->
<g id="edge9" class="edge">
<title>jumping&#45;&gt;dashing</title>
<path fill="none" stroke="#000000" d="M553.3829,-123.4633C532.7341,-130.0918 507.1189,-138.3146 485.3793,-145.2932"/>
<polygon fill="#000000" stroke="#000000" points="484.1469,-142.0128 475.6953,-148.4019 486.2865,-148.6778 484.1469,-142.0128"/>
<text text-anchor="middle" x="514.48" y="-145.9386" font-family="Times,serif" font-size="14.00" fill="#000000">dash()</text>
</g>
<!-- dashing&#45;&gt;falling -->
<g id="edge13" class="edge">
<title>dashing&#45;&gt;falling</title>
<path fill="none" stroke="#000000" d="M400.6325,-161.953C334.3658,-165.0759 198.9124,-171.4592 126.5268,-174.8704"/>
<polygon fill="#000000" stroke="#000000" points="126.1444,-171.3845 116.3203,-175.3514 126.474,-178.3767 126.1444,-171.3845"/>
</g>
<!-- dashing&#45;&gt;jumping -->
<g id="edge12" class="edge">
<title>dashing&#45;&gt;jumping</title>
<path fill="none" stroke="#000000" d="M464.178,-130.9182C473.1105,-122.5717 483.8646,-114.5491 495.48,-110.1386 509.8305,-104.6896 526.2737,-103.2777 541.4626,-103.708"/>
<polygon fill="#000000" stroke="#000000" points="541.5594,-107.2185 551.7366,-104.2733 541.944,-100.2291 541.5594,-107.2185"/>
<text text-anchor="middle" x="514.48" y="-113.9386" font-family="Times,serif" font-size="14.00" fill="#000000">jump()</text>
</g>
<!-- dashing&#45;&gt;dashing -->
<g id="edge11" class="edge">
<title>dashing&#45;&gt;dashing</title>
<path fill="none" stroke="#000000" d="M432.3308,-207.9116C432.8856,-219.1721 435.1532,-227.4852 439.1334,-227.4852 444.2282,-227.4852 446.5168,-213.865 445.9994,-197.8773"/>
<polygon fill="#000000" stroke="#000000" points="435.8306,-207.855 432.2675,-197.8773 428.8307,-207.8992 435.8306,-207.855"/>
<text text-anchor="middle" x="439.1334" y="-231.2852" font-family="Times,serif" font-size="14.00" fill="#000000">dash()</text>
</g>
<!-- dashing&#45;&gt;dashing -->
<g id="edge14" class="edge">
<title>dashing&#45;&gt;dashing</title>
<path fill="none" stroke="#000000" d="M427.2096,-196.7155C422.4401,-226.126 426.4147,-256.4852 439.1334,-256.4852 450.4114,-256.4852 454.8141,-232.6146 452.3415,-206.7015"/>
<polygon fill="#000000" stroke="#000000" points="455.8043,-206.1873 451.0573,-196.7155 448.8615,-207.0803 455.8043,-206.1873"/>
<text text-anchor="middle" x="439.1334" y="-260.2852" font-family="Times,serif" font-size="14.00" fill="#000000">collision_G</text>
</g>
</g>
</svg>
