P2
# Created by GIMP version 2.10.8 PNM plug-in
8 8
255
255
62
62
62
62
62
62
255
62
62
62
62
162
162
162
62
62
62
62
62
162
62
162
62
62
162
162
62
162
162
162
62
62
62
162
62
62
62
162
62
62
62
162
162
62
62
162
62
62
62
62
162
162
162
162
62
255
62
62
62
62
62
62
255
