P2
# Created by GIMP version 2.10.8 PNM plug-in
15 8
255
62
62
62
62
62
62
62
62
62
62
62
62
62
62
62
62
62
62
62
62
62
62
62
62
62
62
62
62
62
62
62
62
62
62
62
62
62
62
62
62
62
62
62
62
62
62
62
162
62
62
162
62
62
162
62
62
162
62
62
162
62
162
162
62
162
162
62
162
162
62
162
162
62
162
162
162
162
162
162
162
162
162
162
162
162
162
162
162
162
162
162
162
162
162
162
162
162
162
162
162
162
162
162
162
162
162
162
162
162
162
162
162
162
162
162
162
162
162
162
162
