P2
# CREATOR: GIMP PNM Filter Version 1.1
15 8
255
62
62
62
62
62
62
62
62
62
62
62
62
62
62
62
62
62
62
62
62
62
62
62
62
62
62
62
62
62
62
62
62
114
114
114
62
62
62
62
62
62
114
114
114
62
62
114
114
162
114
114
62
62
62
62
114
114
162
114
114
114
114
162
162
162
114
114
62
62
114
114
162
162
162
114
162
162
162
162
162
162
114
62
114
114
162
162
162
162
162
162
162
162
162
162
162
114
114
114
162
162
162
162
162
162
162
162
162
162
162
162
162
162
162
162
162
162
162
162
162
