P2
# CREATOR: GIMP PNM Filter Version 1.1
30 4
255
62
62
62
62
62
62
62
62
62
62
62
62
62
62
62
62
62
62
62
62
62
62
62
62
62
62
62
62
62
62
62
114
114
114
114
114
114
114
114
114
114
114
114
114
114
114
114
114
114
114
114
114
114
114
114
114
114
114
114
62
162
162
114
114
162
162
162
162
162
162
114
114
114
114
114
162
162
162
114
114
114
114
162
162
162
162
114
114
162
162
216
162
162
114
162
162
162
162
162
162
162
162
114
114
162
162
162
162
162
114
114
162
162
162
162
162
162
162
162
216
