P2
# CREATOR: GIMP PNM Filter Version 1.1
8 8
255
216
216
162
162
162
162
216
216
216
162
162
162
162
162
162
216
162
162
62
162
162
62
162
162
162
162
62
162
162
62
162
162
162
162
162
162
162
162
162
162
216
162
162
162
162
162
162
216
216
216
162
162
162
162
216
216
216
114
114
216
216
114
114
216
