P2
# CREATOR: GIMP PNM Filter Version 1.1
8 8
255
216
114
114
114
114
216
216
62
216
216
114
114
114
114
216
162
216
216
114
162
62
162
216
162
62
216
114
62
62
62
216
62
216
114
114
114
114
114
114
162
216
216
114
114
114
114
216
162
216
114
114
114
114
114
216
162
114
114
114
114
114
114
216
162
