P2
# CREATOR: GIMP PNM Filter Version 1.1
8 8
255
255
255
62
62
62
62
62
255
255
62
162
162
162
162
162
255
255
62
162
114
162
114
162
255
255
162
162
162
162
162
162
255
255
62
62
62
62
62
62
255
162
255
62
62
62
62
255
162
255
255
62
255
255
62
255
255
255
62
62
255
255
62
62
255
