P2
# Created by GIMP version 2.10.8 PNM plug-in
16 16
255
255
255
255
255
255
255
255
255
255
255
255
255
62
62
255
255
255
158
158
158
255
255
255
255
62
62
62
255
255
255
62
255
255
255
255
62
62
62
62
255
255
255
255
62
62
255
255
62
255
255
255
255
255
255
255
255
255
255
255
255
255
62
255
255
62
62
62
62
62
62
255
255
255
255
114
114
255
255
62
255
255
255
255
255
255
255
255
158
255
255
255
255
255
255
255
62
255
62
62
62
255
255
255
255
255
255
255
255
114
255
255
62
255
255
255
255
255
158
255
255
255
255
255
255
255
255
255
62
255
255
255
255
255
255
255
255
158
158
255
255
255
255
255
62
255
255
62
62
62
255
255
255
255
255
255
255
114
255
255
62
255
255
255
255
255
255
255
158
255
255
255
255
255
255
255
62
62
62
62
62
62
62
255
255
158
255
114
114
255
255
62
255
255
255
255
255
255
255
255
255
255
255
255
255
255
62
255
255
255
255
255
62
62
62
62
255
255
255
255
62
62
255
255
62
255
158
158
255
255
255
255
255
62
62
62
255
255
255
62
255
255
255
255
255
255
255
255
255
255
255
255
255
62
62
255
255
