P2
# CREATOR: GIMP PNM Filter Version 1.1
16 16
255
255
255
255
255
255
255
255
255
255
62
62
62
62
62
62
62
255
255
255
255
255
255
255
62
62
62
62
62
62
62
62
62
255
255
255
255
255
255
62
62
62
62
62
62
62
62
255
255
255
255
255
255
255
255
62
162
162
162
162
162
162
255
255
255
255
255
255
255
255
255
62
162
162
162
162
62
162
255
255
255
255
255
255
255
255
255
62
162
162
162
162
162
162
255
255
255
255
255
255
255
255
255
162
162
162
162
162
62
62
255
255
162
255
255
255
255
255
255
162
162
162
162
162
162
162
255
62
255
255
255
255
255
255
255
62
62
62
62
62
62
62
62
255
255
255
255
255
255
255
62
255
255
62
62
62
62
255
255
255
255
255
255
255
255
162
255
255
255
62
62
62
62
255
255
255
255
255
255
255
255
255
255
255
255
114
114
114
114
114
255
255
255
255
255
255
255
255
255
114
114
114
114
114
114
114
114
255
255
255
255
255
255
62
114
114
114
255
255
255
255
114
114
255
255
255
255
255
255
62
114
255
255
255
255
255
255
114
114
255
255
255
255
255
255
62
255
255
255
255
255
255
255
62
62
62
255
