P2
# CREATOR: GIMP PNM Filter Version 1.1
8 8
255
255
114
114
114
114
114
114
114
114
114
162
162
162
162
255
255
114
162
62
62
62
62
62
255
162
162
62
62
162
62
62
255
162
162
162
162
162
162
255
255
162
162
162
62
62
114
114
114
162
162
162
162
162
162
255
255
255
162
162
162
162
162
255
255
