P2
# Created by GIMP version 2.10.8 PNM plug-in
16 16
255
216
216
216
216
62
62
62
62
216
216
216
216
216
216
216
216
216
216
216
216
216
62
62
62
62
216
216
216
62
62
62
216
216
216
216
216
216
62
62
162
162
216
216
62
114
114
114
62
216
216
216
216
216
62
62
62
162
216
62
62
114
162
162
62
216
216
216
62
62
114
62
62
62
62
62
114
162
162
162
62
216
216
62
62
62
114
162
162
162
62
62
114
162
162
62
62
216
62
62
62
62
62
114
162
162
62
62
114
162
62
62
62
216
62
62
216
62
62
114
162
162
62
62
114
162
162
62
62
114
62
62
216
62
62
114
114
162
62
62
114
162
162
62
62
216
114
62
216
114
62
62
62
62
216
62
114
162
162
62
62
216
216
62
114
62
62
62
62
62
216
62
114
162
162
162
62
216
216
114
114
162
62
62
62
62
216
62
114
114
162
162
62
216
114
216
162
162
162
216
62
62
62
216
62
114
114
114
62
216
216
216
62
162
162
162
216
62
62
216
216
62
62
62
216
216
216
62
62
62
162
162
162
62
62
216
216
216
216
216
216
216
216
62
62
216
216
162
162
62
62
216
216
216
216
216
216
