P2
# CREATOR: GIMP PNM Filter Version 1.1
16 8
255
62
162
62
62
62
62
162
162
62
162
62
62
62
62
162
62
62
62
162
62
62
162
162
62
62
162
62
62
62
62
162
62
255
62
162
162
162
162
62
62
62
62
162
62
62
162
62
62
255
255
62
62
162
62
255
255
255
62
62
162
162
162
62
255
255
255
255
255
255
255
255
255
255
255
62
62
62
62
255
255
255
255
255
255
255
255
255
255
255
255
255
62
62
255
255
255
255
255
255
255
255
255
255
255
255
255
255
255
255
255
255
255
255
255
255
255
255
255
255
255
255
255
255
255
255
255
255
255
