P2
# CREATOR: GIMP PNM Filter Version 1.1
4 8
255
255
255
255
255
62
62
62
62
62
255
255
62
255
255
255
62
255
255
62
255
255
62
255
255
255
62
255
255
255
62
255
255
