P2
# CREATOR: GIMP PNM Filter Version 1.1
5 8
255
216
216
216
216
216
216
62
62
62
216
62
216
216
216
62
62
216
216
216
62
216
62
62
62
216
62
216
216
216
62
62
216
216
216
62
216
62
62
62
216
