P2
# CREATOR: GIMP PNM Filter Version 1.1
3 8
255
255
255
255
0
0
0
255
0
255
255
0
255
255
0
255
255
0
255
255
0
255
0
0
0
