P2
# CREATOR: GIMP PNM Filter Version 1.1
5 8
255
255
255
255
255
255
62
255
255
255
62
62
255
255
255
62
62
255
255
62
255
62
62
62
255
255
62
255
255
62
255
62
255
255
255
62
62
255
255
255
62
